<svg xmlns="http://www.w3.org/2000/svg" width="512" height="512" viewBox="0 0 512 512" version="1.1"><path d="M 100.910 92.595 C 98.632 93.541, 96.530 95.491, 95.160 97.929 L 93 101.772 93 256.738 L 93 411.704 95.270 415.102 C 99.859 421.972, 100.033 421.997, 143.282 421.998 C 185.226 422, 186.057 421.905, 191 416.549 L 193.500 413.840 194 328.684 L 194.500 243.529 209 270.361 C 224.613 299.253, 228.748 304.726, 236.618 306.911 C 238.753 307.504, 247.499 307.991, 256.054 307.994 C 270.772 308, 271.885 307.862, 276.782 305.421 C 279.628 304.003, 283.249 301.191, 284.829 299.171 C 286.409 297.152, 293.956 283.926, 301.601 269.779 L 315.500 244.058 316 328.324 C 316.465 406.649, 316.624 412.779, 318.264 415.281 C 322.407 421.603, 321.439 421.472, 366.215 421.792 C 404.885 422.069, 407.252 421.982, 411.439 420.130 C 414.295 418.867, 416.502 416.994, 417.679 414.838 C 419.418 411.650, 419.500 404.533, 419.500 256.500 C 419.500 102.450, 419.488 101.479, 417.466 98 C 413.388 90.983, 413.520 91.001, 366 91.024 C 318.591 91.046, 319.009 90.991, 312.357 98.128 C 310.629 99.983, 299.674 119.050, 288.014 140.500 C 276.354 161.950, 265.724 181.188, 264.392 183.250 C 262.084 186.826, 261.720 187, 256.537 187 C 251.568 187, 250.895 186.721, 248.684 183.750 C 247.354 181.963, 236.480 162.725, 224.520 141 C 212.560 119.275, 201.363 99.983, 199.637 98.128 C 192.998 90.992, 193.364 91.040, 146.500 91.073 C 111.591 91.098, 103.894 91.355, 100.910 92.595" stroke="none" fill="#ac04ac" fill-rule="evenodd"/><path d="M 38 1.379 C 25.380 4.869, 11.545 15.682, 5.761 26.575 C -0.374 38.127, -0.002 23.270, 0.024 255.960 C 0.040 393.104, 0.401 470.028, 1.043 472.808 C 3.920 485.286, 15.386 500.298, 26.575 506.239 C 38.127 512.374, 23.270 512.002, 255.960 511.976 C 393.104 511.960, 470.028 511.599, 472.808 510.957 C 489.160 507.186, 505.188 492.439, 509.604 477.102 C 510.492 474.021, 511.618 470.719, 512.109 469.764 C 513.276 467.490, 513.295 40.700, 512.128 41.421 C 511.648 41.718, 511.013 40.467, 510.717 38.642 C 508.980 27.941, 496.403 11.590, 485.425 5.761 C 473.868 -0.376, 488.805 -0.006, 255.540 0.067 C 88.868 0.120, 41.521 0.406, 38 1.379 M 0.491 256 C 0.491 373.975, 0.607 422.238, 0.750 363.250 C 0.892 304.263, 0.892 207.738, 0.750 148.750 C 0.607 89.763, 0.491 138.025, 0.491 256 M 100.910 92.595 C 98.632 93.541, 96.530 95.491, 95.160 97.929 L 93 101.772 93 256.738 L 93 411.704 95.270 415.102 C 99.859 421.972, 100.033 421.997, 143.282 421.998 C 185.226 422, 186.057 421.905, 191 416.549 L 193.500 413.840 194 328.684 L 194.500 243.529 209 270.361 C 224.613 299.253, 228.748 304.726, 236.618 306.911 C 238.753 307.504, 247.499 307.991, 256.054 307.994 C 270.772 308, 271.885 307.862, 276.782 305.421 C 279.628 304.003, 283.249 301.191, 284.829 299.171 C 286.409 297.152, 293.956 283.926, 301.601 269.779 L 315.500 244.058 316 328.324 C 316.465 406.649, 316.624 412.779, 318.264 415.281 C 322.407 421.603, 321.439 421.472, 366.215 421.792 C 404.885 422.069, 407.252 421.982, 411.439 420.130 C 414.295 418.867, 416.502 416.994, 417.679 414.838 C 419.418 411.650, 419.500 404.533, 419.500 256.500 C 419.500 102.450, 419.488 101.479, 417.466 98 C 413.388 90.983, 413.520 91.001, 366 91.024 C 318.591 91.046, 319.009 90.991, 312.357 98.128 C 310.629 99.983, 299.674 119.050, 288.014 140.500 C 276.354 161.950, 265.724 181.188, 264.392 183.250 C 262.084 186.826, 261.720 187, 256.537 187 C 251.568 187, 250.895 186.721, 248.684 183.750 C 247.354 181.963, 236.480 162.725, 224.520 141 C 212.560 119.275, 201.363 99.983, 199.637 98.128 C 192.998 90.992, 193.364 91.040, 146.500 91.073 C 111.591 91.098, 103.894 91.355, 100.910 92.595" stroke="none" fill="#fbfbfb" fill-rule="evenodd"/></svg>